HIERARCHY
ROOT Hips
{
  OFFSET 13.6774 106.653 -34.4427
  CHANNELS 6 Xposition Yposition Zposition Zrotation Xrotation Yrotation
  JOINT ToSpine
  {
    OFFSET -2.69724 7.43032 -0.144315
    CHANNELS 3 Zrotation Xrotation Yrotation
    JOINT Spine
    {
      OFFSET -0.0310711 10.7595 1.96963
      CHANNELS 3 Zrotation Xrotation Yrotation
      JOINT Spine1
      {
        OFFSET 19.9056 3.91189 0.764692
        CHANNELS 3 Zrotation Xrotation Yrotation
        JOINT Neck
        {
          OFFSET 25.9749 7.03908 -0.130764
          CHANNELS 3 Zrotation Xrotation Yrotation
          JOINT Head
          {
            OFFSET 9.52751 0.295786 -0.907742
            CHANNELS 3 Zrotation Xrotation Yrotation
            End Site
            {
              OFFSET 16.4037 0.713936 2.7358
            }
          }
        }
        JOINT LeftShoulder
        {
          OFFSET 17.7449 4.33886 11.7777
          CHANNELS 3 Zrotation Xrotation Yrotation
          JOINT LeftArm
          {
            OFFSET 0.911315 1.27913 9.80584
            CHANNELS 3 Zrotation Xrotation Yrotation
            JOINT LeftForeArm
            {
              OFFSET 28.6126 1.18197 -3.53199
              CHANNELS 3 Zrotation Xrotation Yrotation
              JOINT LeftHand
              {
                OFFSET 27.5088 0.0218783 0.327423
                CHANNELS 3 Zrotation Xrotation Yrotation
                End Site
                {
                  OFFSET 18.6038 -0.000155887 0.382096
                }
              }
            }
          }
        }
        JOINT RightShoulder
        {
          OFFSET 17.1009 2.89543 -12.2328
          CHANNELS 3 Zrotation Xrotation Yrotation
          JOINT RightArm
          {
            OFFSET 1.4228 0.178766 -10.211
            CHANNELS 3 Zrotation Xrotation Yrotation
            JOINT RightForeArm
            {
              OFFSET 28.733 1.87905 2.64907
              CHANNELS 3 Zrotation Xrotation Yrotation
              JOINT RightHand
              {
                OFFSET 27.4588 0.290562 -0.101845
                CHANNELS 3 Zrotation Xrotation Yrotation
                End Site
                {
                  OFFSET 17.8396 -0.255518 -0.000602873
                }
              }
            }
          }
        }
      }
    }
  }
  JOINT LeftUpLeg
  {
    OFFSET -5.61296 -2.22332 -10.2353
    CHANNELS 3 Zrotation Xrotation Yrotation
    JOINT LeftLeg
    {
      OFFSET 2.56703 -44.7417 -7.93097
      CHANNELS 3 Zrotation Xrotation Yrotation
      JOINT LeftFoot
      {
        OFFSET 3.16933 -46.5642 -3.96578
        CHANNELS 3 Zrotation Xrotation Yrotation
        JOINT LeftToeBase
        {
          OFFSET 0.346054 -6.02161 12.8035
          CHANNELS 3 Zrotation Xrotation Yrotation
          End Site
          {
            OFFSET 0.134235 -1.35082 5.13018
          }
        }
      }
    }
  }
  JOINT RightUpLeg
  {
    OFFSET -5.7928 -1.72406 10.6446
    CHANNELS 3 Zrotation Xrotation Yrotation
    JOINT RightLeg
    {
      OFFSET -2.57161 -44.7178 -7.85259
      CHANNELS 3 Zrotation Xrotation Yrotation
      JOINT RightFoot
      {
        OFFSET -3.10148 -46.5936 -4.03391
        CHANNELS 3 Zrotation Xrotation Yrotation
        JOINT RightToeBase
        {
          OFFSET -0.0828122 -6.13587 12.8035
          CHANNELS 3 Zrotation Xrotation Yrotation
          End Site
          {
            OFFSET -0.131328 -1.35082 5.13018
          }
        }
      }
    }
  }
}
MOTION
Frames: 8
Frame Time: 0.03333333333333333
0.0000 93.1000 0.0000 79.4030 7.7285 65.5848 -70.3091 1.3955 87.7029 83.4418 66.9666 -7.7532 -6.0820 9.4275 22.7786 -112.9476 10.2303 133.2683 -152.1101 65.8355 -179.6828 -0.3521 -16.4195 -24.8959 -48.0905 34.1543 -127.9451 12.4874 2.0585 -80.9771 0.0750 0.7376 -1.0321 0.6048 1.9551 41.2507 -88.1003 -9.2959 64.4133 -15.4244 16.1444 40.5589 0.3508 -0.4999 -0.2685 -20.3132 60.2973 69.1015 2.5564 22.1841 3.7537 -6.3223 -1.5967 -2.3208 0.7421 1.2630 -10.8386 10.8791 -46.3593 140.3431 -2.5486 30.4559 -26.1962 94.8109 -8.4842 -6.4484 32.0412 15.8863 -38.9017 
0.0000 93.1000 0.0000 80.1700 8.6772 66.8379 -70.3100 -2.5275 87.9734 92.3420 64.7340 -14.8117 -5.9060 8.7435 17.8668 -116.9366 10.2518 135.1716 -153.0948 64.3746 178.2262 -2.8888 -17.1411 -27.0316 -50.7131 29.6724 -131.0767 10.8774 1.2790 -79.0215 -0.4851 1.3106 1.5579 -2.2829 2.9622 40.4936 -92.1352 -8.7638 62.8585 -19.2058 20.1350 43.7817 -1.5678 -1.0431 -1.4576 -20.2184 61.5613 74.6268 5.6538 16.3200 -2.2679 -3.2853 -2.5384 -0.0423 -0.5705 5.8234 -11.9053 18.9442 -47.0071 136.2091 -1.6106 46.3725 -22.2107 97.0123 -7.6072 -11.7865 23.8639 13.1460 -39.9925 
0.0000 93.1000 0.0000 80.3864 9.4967 66.7566 -70.4296 0.2002 87.7548 96.4246 64.2880 -19.5313 -5.5891 8.1393 19.6408 -117.7084 10.8454 136.2869 -154.1585 64.6961 -179.4057 -1.7320 -19.1478 -29.9166 -52.0368 25.0893 -133.1622 10.6802 2.7906 -74.2653 0.0675 1.3039 -0.2167 -0.2391 1.3388 41.1109 -94.2368 -6.2588 61.3473 -21.7173 20.5858 45.9646 1.0207 -1.1168 0.2758 -18.0092 62.2919 72.7791 5.2578 18.0212 -2.7405 0.0175 -0.1718 -2.7154 -0.3849 3.7910 -13.5641 21.7592 -43.0089 135.7694 0.5204 66.1144 -21.1548 93.7181 -10.3914 -8.2001 19.0902 8.4119 -41.2632 
0.0000 93.1000 0.0000 80.2512 7.4450 66.2206 -70.8874 0.5218 87.8160 89.5900 64.9660 -14.6628 -2.8878 8.0056 20.1389 -119.2057 11.0958 136.9737 -157.0461 63.6274 -178.3706 -0.9223 -20.1670 -32.6054 -54.0719 22.8291 -134.2830 10.1422 3.3648 -71.7786 0.1162 -0.5115 -0.6878 -0.9755 2.9596 40.8258 -93.3136 -6.1755 61.5074 -23.8214 21.7814 47.3516 -0.2310 0.8430 -1.0027 -10.0246 60.0257 63.0096 3.4091 26.9042 2.4871 3.0175 -5.6866 -1.1299 0.0809 3.0398 -9.7171 23.8857 -39.4039 131.4084 14.0634 82.2861 -32.8492 69.9392 -5.0026 -8.4449 22.2376 28.6436 -33.2745 
0.0000 93.1000 0.0000 78.2160 8.3131 64.0838 -71.3502 -1.3089 87.6577 81.6283 64.3162 -11.1399 -1.9634 7.5492 20.1690 -118.1126 9.7557 136.8401 -157.4013 63.5513 -177.5231 -1.3925 -20.0349 -33.4762 -52.8976 23.3464 -135.1515 9.7293 2.7478 -70.1555 0.1279 -0.4081 0.6183 -1.9424 2.5655 39.7130 -94.1552 -7.2312 59.7192 -25.7597 21.8524 49.0489 -0.6803 0.8340 -0.2212 -10.1567 58.2322 60.4962 0.2511 29.8586 6.8203 2.9748 -5.3164 0.7879 -0.7136 5.2198 -8.5436 20.6358 -36.8994 124.9892 -173.7491 84.3421 140.1681 73.2539 13.0825 -13.9219 14.5161 36.2606 -7.8901 
0.0000 93.1000 0.0000 78.2228 8.7191 61.2281 -71.4379 -1.1363 87.4829 77.7610 66.2938 -6.9252 0.1385 9.6814 16.8398 -119.1371 11.0778 136.8730 -160.4227 63.9699 -173.6087 -2.1145 -20.5463 -33.8967 -52.3575 23.6369 -134.8810 10.4258 2.5954 -69.3467 -0.2456 0.1893 0.1924 -1.5418 1.6129 38.3430 -96.1378 -8.8777 57.5957 -26.8563 20.7371 51.6277 0.6735 0.1479 0.4492 -11.8653 55.0602 63.1064 -0.4120 34.9841 7.5434 4.2851 -10.1870 -0.8682 -1.9514 7.0818 -6.7720 14.5044 -32.6673 114.9799 170.3525 76.5939 164.8842 66.2361 9.7499 -12.2576 9.4756 30.7431 -10.6258 
0.0000 93.1000 0.0000 78.3032 8.5475 57.0456 -71.3188 -0.4943 87.8256 74.8850 66.5862 -4.1409 0.5272 12.2935 13.9955 -120.2590 11.8394 138.8805 -162.2008 65.0614 -170.1096 -1.9164 -20.2758 -33.6836 -52.0450 26.9647 -133.0585 11.1546 2.9053 -72.1701 -0.0625 1.0113 -0.2714 -0.6757 1.5214 39.0096 -98.3127 -8.0210 56.8021 -29.7594 19.7486 54.7605 1.2453 -1.0406 0.8310 -17.4020 52.4194 66.8865 -1.6356 37.7835 4.5623 5.5300 -11.8531 -2.7892 -3.0437 6.2322 -2.6645 4.0626 -28.3908 102.1691 166.4342 76.7448 -178.0528 52.9758 5.2167 -8.9478 4.4603 24.3359 -10.5809 
0.0000 93.1000 0.0000 77.2223 8.4764 53.5087 -71.0635 -0.4380 87.9662 72.9523 67.0562 -2.9356 1.1868 13.2329 12.4206 -120.2897 12.7302 140.2676 -162.9173 64.9957 -169.1138 -1.8048 -19.3012 -33.1476 -51.3419 28.7231 -131.1529 13.7065 4.0388 -73.0862 -0.1808 1.1031 0.2932 -0.8385 1.9712 38.2383 -99.0179 -7.9705 56.3988 -31.0498 19.4098 58.6714 0.8317 -1.1454 0.8415 -21.0652 46.4478 68.7431 -1.6301 41.1121 2.7889 5.4344 -13.2891 -2.8681 -3.5780 6.1188 -0.0971 -3.7288 -25.0197 89.9775 161.3365 79.1121 -171.9941 44.3465 8.7109 -8.1133 -1.5626 20.1652 -4.6870 
